<svg width="637" height="578" viewBox="0 0 637 578" fill="none" xmlns="http://www.w3.org/2000/svg">
<g clip-path="url(#clip0_5_183)">
<path opacity="0.862745" d="M319 93H323.75L324 94C322.267 93.4433 321.6 93.7767 322 95H324.75C324.533 94.0833 324.95 93.75 326 94V95H327L328 97H330V98H331V99H332V100H333V101H334V102H335V103H336V104H337V105H338V106H339V107H340L341 109H343V110H344V111H345V112H346L347 114H351L352 112H354L355 110H357L358 108H360V107H361L362 105H364V104H365L366 102H367.75C367.487 100.917 368.237 100.583 370 101V100L372 99C371.667 100 372 100.333 373 100V99C374.733 99.5567 375.4 99.2233 375 98C374 98.3333 373.667 98 374 97C375 96.6667 375.333 97 375 98H377L376 96C377.05 95.75 377.467 96.0833 377.25 97H382.75C382.487 98.0833 383.237 98.4167 385 98L384 96H385V97H386V98H387V99L389 100V102H390V103H391V104L393 105V107L395 108V110L397 111V113H398V114L400 115V117H401V118H402L403 120H405V119H407C406.667 118 407 117.667 408 118C407.667 119 408 119.333 409 119V117H411V116H413V115H415V114H417C416.667 113 417 112.667 418 113C417.667 114 418 114.333 419 114V112H421L422 110H424V109H426V108H428V107C429.733 107.557 430.4 107.223 430 106H433L433.25 105H439V106H441V107H442V108L444 109V111H445V112.75C446.083 112.487 446.417 113.237 446 115L448 116V119L450 120V123L452 124V127H453L454 129C452.777 128.6 452.443 129.267 453 131H458.75L459 130H461.75C461.487 128.917 462.237 128.583 464 129C463.667 130 464 130.333 465 130V128H468.75C468.487 126.917 469.237 126.583 471 127C470.667 128 471 128.333 472 128C471.333 126 472 125.333 474 126C473.667 127 474 127.333 475 127L476 125H479.75L480 124H483C482.667 125 483 125.333 484 125L484.25 123H493L492 125C493.763 125.417 494.513 125.083 494.25 124H497C496.443 125.733 496.777 126.4 498 126C497.667 125 498 124.667 499 125V126H502V127H504V128H506V129C507.733 128.443 508.4 128.777 508 130H511V131H513V132C514.733 131.443 515.4 131.777 515 133H518V134H520V135C521.733 134.443 522.4 134.777 522 136H525V137H527V138H529V139C530.733 138.443 531.4 138.777 531 140H534V141H536V142H538V143H540V144H542V145C543.733 144.443 544.4 144.777 544 146H547L548 148H551V149C552.733 148.443 553.4 148.777 553 150H556V151C557.733 150.443 558.4 150.777 558 152H561L562 154H565V155H567V156H568.75C568.487 157.083 569.237 157.417 571 157L572 159H574V160H575V161H576V162L578 163V165L580 166C579.583 167.763 579.917 168.513 581 168.25V171L582 171.25V174C580.777 173.6 580.443 174.267 581 176H583V181L581 182V184C582.223 183.6 582.557 184.267 582 186H581V188.75L580 189V192H579C579.557 193.733 579.223 194.4 578 194C578.333 193 578 192.667 577 193V195C578 194.667 578.333 195 578 196H577C577.417 197.763 577.083 198.513 576 198.25V201H575V203H574C574.557 204.733 574.223 205.4 573 205V208L571 209V212H570C570.557 213.733 570.223 214.4 569 214V216.75C567.917 216.487 567.583 217.237 568 219H567V222L565 223V226H564C564.557 227.733 564.223 228.4 563 228V230.75C561.917 230.487 561.583 231.237 562 233H561V236H560V238H559V240H558C558.557 241.733 558.223 242.4 557 242V245H556V246H555L554 248C555 247.667 555.333 248 555 249H554C554.557 250.733 554.223 251.4 553 251V253.75C551.917 253.487 551.583 254.237 552 256C550.267 255.443 549.6 255.777 550 257C551 256.667 551.333 257 551 258H550V261L548 262V266L546 267V269.75C544.917 269.487 544.583 270.237 545 272H544V275H543V277H542V279H541C541.557 280.733 541.223 281.4 540 281V284H539C539.417 285.763 539.083 286.513 538 286.25V289H537V291H536V293H535C535.557 294.733 535.223 295.4 534 295V298H533V300H532C532.557 301.733 532.223 302.4 531 302V305H530V307H529V309H528C528.557 310.733 528.223 311.4 527 311V314L525 315V318H524C524.557 319.733 524.223 320.4 523 320V322.75C521.917 322.487 521.583 323.237 522 325H521V328L519 329V331.75C517.917 331.487 517.583 332.237 518 334H517V337C515.267 336.443 514.6 336.777 515 338C516 337.667 516.333 338 516 339H515V342H514V343.75C512.917 343.487 512.583 344.237 513 346C511.267 345.443 510.6 345.777 511 347C512 346.667 512.333 347 512 348H511V351H510V353H509C509.557 354.733 509.223 355.4 508 355V358H507V360H506V361.75C504.917 361.487 504.583 362.237 505 364C503.267 363.443 502.6 363.777 503 365C504.223 364.6 504.557 365.267 504 367H503C503.557 368.733 503.223 369.4 502 369V372L500 373V376H499V378H498V379.75C496.917 379.487 496.583 380.237 497 382H496V383H495V384H494V385H493V386H492L491 388H489L488 390H486V391H484.25C484.513 392.083 483.763 392.417 482 392V391H479V392C480.733 391.443 481.4 391.777 481 393H477.25L476.75 392H471V393H468L469 391H466.25C466.513 392.083 465.763 392.417 464 392C464.557 390.267 464.223 389.6 463 390C463.333 391 463 391.333 462 391V390H459V389C457.267 389.557 456.6 389.223 457 388H454V387H452V386H450V385C448.267 385.557 447.6 385.223 448 384H445V383H443.25C443.513 381.917 442.763 381.583 441 382C441.557 380.267 441.223 379.6 440 380C440.333 381 440 381.333 439 381V380H436L435 378H432V377H430V376H428V375C426.267 375.557 425.6 375.223 426 374H423V373H421V372H419V371H417V370H415V369H413.25C413.513 367.917 412.763 367.583 411 368C411.417 366.237 411.083 365.487 410 365.75V354.25L409 353.75V349.25C407.917 349.513 407.583 348.763 408 347L409 346.75V343L407 344V341L406 340.75V337L404 336V333L403 332.75V327H404V324H405V322H406V320H407C406.443 318.267 406.777 317.6 408 318V315H409V313H410V311H411C410.443 309.267 410.777 308.6 412 309V306H413V304H414C413.443 302.267 413.777 301.6 415 302V299H416V297H417V295.25C418.083 295.513 418.417 294.763 418 293H419L420 291C419 291.333 418.667 291 419 290H420V288H421V286.25C422.083 286.513 422.417 285.763 422 284C423.733 284.557 424.4 284.223 424 283C422.777 283.4 422.443 282.733 423 281H424V279H425V277H426C425.443 275.267 425.777 274.6 427 275V272H428V270H429V268H430C429.443 266.267 429.777 265.6 431 266V263H432C431.443 261.267 431.777 260.6 433 261V258.25C434.083 258.513 434.417 257.763 434 256H435V253H436V251H437C436.443 249.267 436.777 248.6 438 249V246L440 245V242H441C440.583 240.237 440.917 239.487 442 239.75V237H443C442.667 238 443 238.333 444 238V236C443 236.333 442.667 236 443 235H444V232L446 231V228H447C446.443 226.267 446.777 225.6 448 226V223.25C449.083 223.513 449.417 222.763 449 221H450V218H451V216H452V214H453C452.443 212.267 452.777 211.6 454 212V209H455V207H456C455.443 205.267 455.777 204.6 457 205V202H458V200H459V198H460C459.443 196.267 459.777 195.6 461 196V193.25C462.083 193.513 462.417 192.763 462 191H463V188L465 187V184H466C465.443 182.267 465.777 181.6 467 182V179.25C468.083 179.513 468.417 178.763 468 177H469V174H470V172H471V170H472C471.443 168.267 471.777 167.6 473 168V165H474C473.667 166 474 166.333 475 166V164C474 164.333 473.667 164 474 163H475V160H476V158H477V156H478C477.443 154.267 477.777 153.6 479 154V151H480V149H481V147H482C481.443 145.267 481.777 144.6 483 145V143H480L479.75 144H475.25L475 145H472L471.75 146H468.25L468 147H465L464.75 148H461.25L461 149H458V150L456 151V154H455C455.417 155.763 455.083 156.513 454 156.25V159H453C453.557 160.733 453.223 161.4 452 161V164.75C450.917 164.487 450.583 165.237 451 167H450V170.75C448.917 170.487 448.583 171.237 449 173H448V176H447V178H446L445 180C446 179.667 446.333 180 446 181H445V183.75L444 184V187H443C443.557 188.733 443.223 189.4 442 189V191.75L441 192V195H440C440.557 196.733 440.223 197.4 439 197V201L437 202V205.75C435.917 205.487 435.583 206.237 436 208H435V212H434C434.417 213.763 434.083 214.513 433 214.25V217H432C432.557 218.733 432.223 219.4 431 219V223H430C430.417 224.763 430.083 225.513 429 225.25V228H428C428.557 229.733 428.223 230.4 427 230V234H426C426.557 235.733 426.223 236.4 425 236V238.75L424 239V242H423V245H422C422.557 246.733 422.223 247.4 421 247V249.75L420 250V253H419C419.557 254.733 419.223 255.4 418 255V258H417C417.417 259.763 417.083 260.513 416 260.25V264H415C415.557 265.733 415.223 266.4 414 266V269H413C413.557 270.733 413.223 271.4 412 271V274.75L411 275C411.333 274 411 273.667 410 274V276C411 275.667 411.333 276 411 277H410V280H409C409.557 281.733 409.223 282.4 408 282V285H407C407.557 286.733 407.223 287.4 406 287V289.75L405 290V293H404V296H403V299H402C402.557 300.733 402.223 301.4 401 301V304H400V307H399C399.333 306 399 305.667 398 306V308C399 307.667 399.333 308 399 309H398V312L397 312.25V315.75L396 316C396.557 314.267 396.223 313.6 395 314V315L393 316C393.333 315 393 314.667 392 315V313L390 312V310C391 310.333 391.333 310 391 309L389 308C389.333 309 389 309.333 388 309C388.333 308 388 307.667 387 308V306H386V305H385V304L383 303V297H384C383.443 295.267 383.777 294.6 385 295V292H386C385.583 290.237 385.917 289.487 387 289.75V286H388C387.443 284.267 387.777 283.6 389 284V281H390C389.443 279.267 389.777 278.6 391 279V276H393V274C392 274.333 391.667 274 392 273H393V270H394V268.25C395.083 268.513 395.417 267.763 395 266H396L397 264C395.777 264.4 395.443 263.733 396 262L398 261V257C399.223 257.4 399.557 256.733 399 255H401V253C400 253.333 399.667 253 400 252H401C400.443 250.267 400.777 249.6 402 250V246.25C403.083 246.513 403.417 245.763 403 244H404V240H405C404.443 238.267 404.777 237.6 406 238V235H407C406.443 233.267 406.777 232.6 408 233V230.25L409 230V227.25C410.083 227.513 410.417 226.763 410 225H411V222.25L412 222V219H413C412.443 217.267 412.777 216.6 414 217V214.25C415.083 214.513 415.417 213.763 415 212H416V209.25L417 209V206H418C417.443 204.267 417.777 203.6 419 204V200L421 199V195.25C422.083 195.513 422.417 194.763 422 193H423V190.25C424.083 190.513 424.417 189.763 424 188H425V184.25C426.083 184.513 426.417 183.763 426 182H427V178H428C427.443 176.267 427.777 175.6 429 176V173.25C430.083 173.513 430.417 172.763 430 171H432V169C430.777 169.4 430.443 168.733 431 167H432C431.443 165.267 431.777 164.6 433 165V162.25C434.083 162.513 434.417 161.763 434 160H436V158C434.777 158.4 434.443 157.733 435 156H436C435.443 154.267 435.777 153.6 437 154V151H438V148H439C438.667 149 439 149.333 440 149V143.25C440.917 143.467 441.25 143.05 441 142L440 141.75V138H438V136H437V134H436V132C435 132.333 434.667 132 435 131C436 131.333 436.333 131 436 130H434V128.25C432.917 128.513 432.583 127.763 433 126H430V127H428V128H426V129H424.25C424.513 130.083 423.763 130.417 422 130L421 132H418L417 134H415V135H413V136H411.25C411.513 137.083 410.763 137.417 409 137V138L407 139V141H406V145.75L405 146.25V150.75L404 151.25V156.75L403 157V161.75L402 162.25V167.75L401 168V171.75L400 172.25V175.75L399 176.25V180.75L398 181.25V185.75L397 186.25V190.75L396 191V194.75L395 195.25V200.75L394 201V204L393 204.25V210.75L392 211V214L391 214.25V219.75L390 220V223L389 223.25V228.75L388 229V232L387 232.25V237.75L386 238V241.75L385 242.25V247.75C384.083 247.533 383.75 247.95 384 249H383V250C384.223 249.6 384.557 250.267 384 252L382 251C381.583 252.763 381.917 253.513 383 253.25V258H382V261.75L381 262.25V267.75C380.083 267.533 379.75 267.95 380 269H379V270C380.223 269.6 380.557 270.267 380 272H379V276.75L378 277V280.75L377 281.25V286H375V289C376 288.667 376.333 289 376 290H375V294.75L374 295.25V299.75L373 300V303H372V305.75C371.083 305.533 370.75 305.95 371 307C372.223 306.6 372.557 307.267 372 309L371 309.25V312.75L370 313.25V317.75L369 318V321H368L367 323H368V326L367 326.25V335.75L365 336V337C366 336.667 366.333 337 366 338H363C363.557 336.267 363.223 335.6 362 336C362.333 337 362 337.333 361 337V336H357.25L357 335H354L353.75 334H350C350.557 332.267 350.223 331.6 349 332V333H346L347 331H344.25C344.513 332.083 343.763 332.417 342 332V331H336.25L336 330C337.733 330.557 338.4 330.223 338 329H334.25L333.75 330H322C322.333 329 322 328.667 321 329C321.4 330.223 320.733 330.557 319 330C319.333 329 319 328.667 318 329V331H313.25L313 332H310V331H307C307.667 333 307 333.667 305 333C305.333 332 305 331.667 304 332L303 334H299.25C299.513 335.083 298.763 335.417 297 335V336H295C295.333 335 295 334.667 294 335L293 337C291.267 336.443 290.6 336.777 291 338H288.25L288 339H285V340H282V341C280.267 340.443 279.6 340.777 280 342H277V343H274.25C274.467 343.917 274.05 344.25 273 344C273.4 342.777 272.733 342.443 271 343C271.333 344 271 344.333 270 344V311.25L270.25 311H273C272.583 312.763 272.917 313.513 274 313.25V316C275 315.667 275.333 316 275 317C274 316.667 273.667 317 274 318H276V321H279L279.25 320H283V317H282V314H281V311H280V308H279V305L278 304.75V300.25L277 300V297L276 296.75V293.25L275 293V290L274 289.75V286.25L273 286V283H272V279.25L271 279V276L270 275.75V272.25L269 272V269L268 268.75V265.25L267 265V262L266 261.75V257.25L265 257C265.417 255.237 265.083 254.487 264 254.75V250.25L263 250C263.417 248.237 263.083 247.487 262 247.75V244.25L261 244V241H260V238L259 237.75V234.25L258 234V231L257 230.75V227.25L256 227V224L255 223.75V219.25C253.917 219.513 253.583 218.763 254 217H253V213.25L252 213V210L251 209.75V205.25C249.917 205.513 249.583 204.763 250 203H249V199H248C248.417 197.237 248.083 196.487 247 196.75V192.25L246 192C246.417 190.237 246.083 189.487 245 189.75V185.25L244 185V182L243 181.75V178H242C242.417 176.237 242.083 175.487 241 175.75V172.25L240 172V169H239V166H238V162.25L237 162V159H236V155.25L235 155V152L234 151.75V148.25C233.083 148.467 232.75 148.05 233 147C234.223 147.4 234.557 146.733 234 145H232V141C231 141.333 230.667 141 231 140H229L228 138H225V137C223.267 137.557 222.6 137.223 223 136H220L219 134H216V133H214V132H212V131C210.267 131.557 209.6 131.223 210 130H207.25C207.513 128.917 206.763 128.583 205 129C204.667 130 205 130.333 206 130V132H207V135H208C207.443 136.733 207.777 137.4 209 137V139.75L210 140V143H211V146H212V149H213V152H214C213.443 153.733 213.777 154.4 215 154V158H216C215.443 159.733 215.777 160.4 217 160V163H218C217.443 164.733 217.777 165.4 219 165V168H220V170H221C220.443 171.733 220.777 172.4 222 172V175H223V177.75C223.917 177.533 224.25 177.95 224 179C222.777 178.6 222.443 179.267 223 181H225C224.443 182.733 224.777 183.4 226 183V185.75L227 186V189H228V192H229C228.443 193.733 228.777 194.4 230 194V196.75L231 197V200H232V203H233C232.443 204.733 232.777 205.4 234 205V209H235C234.443 210.733 234.777 211.4 236 211V214H237C236.443 215.733 236.777 216.4 238 216V219H239C238.583 220.763 238.917 221.513 240 221.25V225H241C240.443 226.733 240.777 227.4 242 227V230H243V232.75C243.917 232.533 244.25 232.95 244 234H243V237L245 236V239H246C245.583 240.763 245.917 241.513 247 241.25V244H248C247.583 245.763 247.917 246.513 249 246.25V250H250C249.443 251.733 249.777 252.4 251 252V255H252C251.443 256.733 251.777 257.4 253 257V260H254C253.583 261.763 253.917 262.513 255 262.25V265H256C255.443 266.733 255.777 267.4 257 267V271H258C257.583 272.763 257.917 273.513 259 273.25V276H260C259.443 277.733 259.777 278.4 261 278V282H262C261.583 283.763 261.917 284.513 263 284.25V287H264C263.443 288.733 263.777 289.4 265 289V294H264V295H263V296H262V297H261V298H260V299H259V300H258V301H257V302L255 303C255.333 302 255 301.667 254 302L253 304C254 303.667 254.333 304 254 305H253L252 307H250C250.333 306 250 305.667 249 306V304H248V302H247V298L245 297V294H244C244.557 292.267 244.223 291.6 243 292V288H242C242.557 286.267 242.223 285.6 241 286V283H240C240.557 281.267 240.223 280.6 239 281V278H238V275.25C237.083 275.467 236.75 275.05 237 274C238 274.333 238.333 274 238 273H236V270.25L235 270V267H234V264H233C233.557 262.267 233.223 261.6 232 262V259H231C231.417 257.237 231.083 256.487 230 256.75V253H229C229.557 251.267 229.223 250.6 228 251V248H227C227.417 246.237 227.083 245.487 226 245.75V243C225 243.333 224.667 243 225 242C226 242.333 226.333 242 226 241H224V238.25L223 238V235H222V232H221C221.417 230.237 221.083 229.487 220 229.75V226H219C219.417 224.237 219.083 223.487 218 223.75V221C217 221.333 216.667 221 217 220C218 220.333 218.333 220 218 219H216V216.25L215 216V213H214C214.417 211.237 214.083 210.487 213 210.75V207H212C212.557 205.267 212.223 204.6 211 205V202.25L210 202V199H209V196H208C208.557 194.267 208.223 193.6 207 194V191.25L206 191V188H205V185H204C204.417 183.237 204.083 182.487 203 182.75V180C202 180.333 201.667 180 202 179C203.223 179.4 203.557 178.733 203 177L201 178V174H200C200.417 172.237 200.083 171.487 199 171.75V169C198 169.333 197.667 169 198 168C199 168.333 199.333 168 199 167H197V164H196C196.557 162.267 196.223 161.6 195 162V159.25L194 159V156H193C193.557 154.267 193.223 153.6 192 154V151H191V148.25C190.083 148.467 189.75 148.05 190 147C191.223 147.4 191.557 146.733 191 145H189C189.557 143.267 189.223 142.6 188 143V140H187C187.557 138.267 187.223 137.6 186 138V135.25C184.917 135.513 184.583 134.763 185 133C184 133.333 183.667 133 184 132H182V133H179V134H177.25C177.513 135.083 176.763 135.417 175 135C175.333 134 175 133.667 174 134V136H171.25C171.467 136.917 171.05 137.25 170 137C170.333 136 170 135.667 169 136V138H166.25C166.513 139.083 165.763 139.417 164 139V140H161.25L161 141H158V142H155V143C153.267 142.443 152.6 142.777 153 144H150V145C148.267 144.443 147.6 144.777 148 146H145V147C143.267 146.443 142.6 146.777 143 148H140V149H138.25C138.513 150.083 137.763 150.417 136 150C136.333 149 136 148.667 135 149V151C133.237 150.583 132.487 150.917 132.75 152H130V153H128.25C128.513 154.083 127.763 154.417 126 154C126.333 153 126 152.667 125 153V155C123.267 154.443 122.6 154.777 123 156H120.25L120 157H117V158H114V159C112.267 158.443 111.6 158.777 112 160H109V161C107.267 160.443 106.6 160.777 107 162H104V163C102.267 162.443 101.6 162.777 102 164H99V165C97.2367 164.583 96.4867 164.917 96.75 166H94V167H92C92.3333 168 92 168.333 91 168C91.3333 167 91 166.667 90 167L89 169H87.25C87.5133 170.083 86.7633 170.417 85 170C85.3333 169 85 168.667 84 169C84.5567 170.733 84.2233 171.4 83 171C83.3333 170 83 169.667 82 170C82.6667 172 82 172.667 80 172C80.3333 171 80 170.667 79 171V173H77V174H75C75.3333 175 75 175.333 74 175C74.4167 176.763 74.0833 177.513 73 177.25V182H74C73.4433 183.733 73.7767 184.4 75 184V186.75L76 187V190H77V193H78C77.4433 194.733 77.7767 195.4 79 195V198H80C79.5833 199.763 79.9167 200.513 81 200.25V203H82C81.4433 204.733 81.7767 205.4 83 205V207.75L84 208V211H85V214H86C85.5833 215.763 85.9167 216.513 87 216.25V219H88V221C89 220.667 89.3333 221 89 222C88 221.667 87.6667 222 88 223L90 224V227H91V228.75C92.0833 228.487 92.4167 229.237 92 231C90.7767 230.6 90.4433 231.267 91 233L93 232C92.5833 233.763 92.9167 234.513 94 234.25V237H95V238.75C96.0833 238.487 96.4167 239.237 96 241C94.7767 240.6 94.4433 241.267 95 243L97 242C96.5833 243.763 96.9167 244.513 98 244.25V247L99 247.25V250L100 250.25V253H101C100.443 254.733 100.777 255.4 102 255V258H103C102.443 259.733 102.777 260.4 104 260V263H105C104.583 264.763 104.917 265.513 106 265.25V268H107C106.443 269.733 106.777 270.4 108 270V274L110 275V278H111C110.443 279.733 110.777 280.4 112 280V282.75L113 283V286H114C113.583 287.763 113.917 288.513 115 288.25V291C116 290.667 116.333 291 116 292C115 291.667 114.667 292 115 293H117V296H118C117.583 297.763 117.917 298.513 119 298.25V302H120C119.443 303.733 119.777 304.4 121 304V307H122V308.75C123.083 308.487 123.417 309.237 123 311C122 310.667 121.667 311 122 312H124C123.443 313.733 123.777 314.4 125 314V317H126C125.583 318.763 125.917 319.513 127 319.25V323H128C127.443 324.733 127.777 325.4 129 325V328H130C129.443 329.733 129.777 330.4 131 330V333H132C131.443 334.733 131.777 335.4 133 335V338H134C133.443 339.733 133.777 340.4 135 340V342.75L136 343V346H137C136.583 347.763 136.917 348.513 138 348.25V351C139 350.667 139.333 351 139 352C138 351.667 137.667 352 138 353H140V356H141C140.443 357.733 140.777 358.4 142 358V361H143C142.443 362.733 142.777 363.4 144 363V366H145V367.75C146.083 367.487 146.417 368.237 146 370H147L148 372H150V373H154V372H157C156.667 373 157 373.333 158 373V371C159.763 371.417 160.513 371.083 160.25 370H163C162.667 369 163 368.667 164 369C163.6 370.223 164.267 370.557 166 370L165 368C166.763 368.417 167.513 368.083 167.25 367H170L170.25 366H173L173.25 365H176V364H178V363C179.733 363.557 180.4 363.223 180 362H183V361H185.75C185.533 360.083 185.95 359.75 187 360C186.667 361 187 361.333 188 361C187.333 359 188 358.333 190 359C189.667 360 190 360.333 191 360C190.333 358 191 357.333 193 358C192.6 359.223 193.267 359.557 195 359L194 357C195 356.667 195.333 357 195 358H197L196 356L198 357V356L200 355C199.667 356 200 356.333 201 356V354C202.733 354.557 203.4 354.223 203 353H205.75L206 352H209V351C210.733 351.557 211.4 351.223 211 350H214V349H216.75C216.533 348.083 216.95 347.75 218 348C217.6 349.223 218.267 349.557 220 349V347H222C221.667 346 222 345.667 223 346C222.667 347 223 347.333 224 347V345H227C226.667 346 227 346.333 228 346V348C226.777 348.4 226.443 347.733 227 346H225C224.667 347 225 347.333 226 347V349C227.733 348.443 228.4 348.777 228 350L227 350.25V355.75L226 356.25V366H225L224 368H222C222.333 367 222 366.667 221 367C221.557 368.733 221.223 369.4 220 369C220.333 368 220 367.667 219 368V370H216V371C214.267 370.443 213.6 370.777 214 372H211.25L211 373H208V374C206.267 373.443 205.6 373.777 206 375H203.25L203 376H200V377H198V378H196.25C196.513 379.083 195.763 379.417 194 379C194.4 377.777 193.733 377.443 192 378L193 380C192 380.333 191.667 380 192 379H190L191 381H188V382H186.25C186.513 383.083 185.763 383.417 184 383C184.333 382 184 381.667 183 382V384H180V385H178C178.333 386 178 386.333 177 386C177.333 385 177 384.667 176 385L175 387C173.267 386.443 172.6 386.777 173 388H170V389C168.267 388.443 167.6 388.777 168 390H165V391H163.25C163.513 392.083 162.763 392.417 161 392L160.75 391H157V392C158.733 391.443 159.4 391.777 159 393H156L155.75 392H149V393H146L147 391H144.25C144.513 392.083 143.763 392.417 142 392V391H140.25C140.513 389.917 139.763 389.583 138 390L137 388H135V387H134V386H133V385H132V384L130 383V381L128 380C128.417 378.237 128.083 377.487 127 377.75V375H126C126.557 373.267 126.223 372.6 125 373V370H124C124.557 368.267 124.223 367.6 123 368V365H122C122.557 363.267 122.223 362.6 121 363V359H120C120.557 357.267 120.223 356.6 119 357V354H118C118.417 352.237 118.083 351.487 117 351.75V349H116C116.557 347.267 116.223 346.6 115 347V343L113 342V338H112C112.557 336.267 112.223 335.6 111 336V333H110C110.417 331.237 110.083 330.487 109 330.75V328C108 328.333 107.667 328 108 327C109 327.333 109.333 327 109 326H107V323H106V320.25C105.083 320.467 104.75 320.05 105 319C106.223 319.4 106.557 318.733 106 317L104 318L105 316L103 315C103.557 313.267 103.223 312.6 102 313V310H101C101.417 308.237 101.083 307.487 100 307.75V305H99C99.5567 303.267 99.2233 302.6 98 303V299H97C97.5567 297.267 97.2233 296.6 96 297V294H95C95.5567 292.267 95.2233 291.6 94 292V288.25C93.0833 288.467 92.75 288.05 93 287C94 287.333 94.3333 287 94 286H92V283H91C91.4167 281.237 91.0833 280.487 90 280.75V278C89 278.333 88.6667 278 89 277C90 277.333 90.3333 277 90 276H88V273H87C87.4167 271.237 87.0833 270.487 86 270.75V268C85 268.333 84.6667 268 85 267C86 267.333 86.3333 267 86 266H84V263.25L83 263V260H82V258C81 258.333 80.6667 258 81 257C82.2233 257.4 82.5567 256.733 82 255H80C80.4167 253.237 80.0833 252.487 79 252.75V250H78V248.25C76.9167 248.513 76.5833 247.763 77 246C78 246.333 78.3333 246 78 245H76C76.4167 243.237 76.0833 242.487 75 242.75V240H74C74.5567 238.267 74.2233 237.6 73 238V234H72C72.5567 232.267 72.2233 231.6 71 232V229H70C70.5567 227.267 70.2233 226.6 69 227V224H68C68.4167 222.237 68.0833 221.487 67 221.75V219H66C66.5567 217.267 66.2233 216.6 65 217V213L63 212V209.25L62 209V206H61C61.4167 204.237 61.0833 203.487 60 203.75V201H59C59.5567 199.267 59.2233 198.6 58 199V196.25L57 196V193.25L56 193V190.25C54.9167 190.513 54.5833 189.763 55 188C56 188.333 56.3333 188 56 187H55V184H54C54.3333 185 54 185.333 53 185V175.25L55 175V173H54V170H55V168H56V166.25C57.0833 166.513 57.4167 165.763 57 164H58V163H59V162H60V161H61V160H62V159L64 158C63.6 159.223 64.2667 159.557 66 159L65 157L67 156C66.6667 157 67 157.333 68 157V155H69.75C69.4867 153.917 70.2367 153.583 72 154C71.6667 155 72 155.333 73 155V153C74.7333 153.557 75.4 153.223 75 152H77.75L78 151H81V150H84V149C85.7633 149.417 86.5133 149.083 86.25 148H89V147H91C90.6667 146 91 145.667 92 146C91.6 147.223 92.2667 147.557 94 147L93 145C94.7633 145.417 95.5133 145.083 95.25 144H98V143C99.7333 143.557 100.4 143.223 100 142H103V141C104.733 141.557 105.4 141.223 105 140H107.75C107.487 138.917 108.237 138.583 110 139C109.667 140 110 140.333 111 140V138H113.75C113.487 136.917 114.237 136.583 116 137V136H119V135H121V134C122.733 134.557 123.4 134.223 123 133H125.75L126 132H129V131H132V130H134V129C135.733 129.557 136.4 129.223 136 128H139V127C140.733 127.557 141.4 127.223 141 126H143.75L144 125H147V124C148.733 124.557 149.4 124.223 149 123H152V122H155V121H156.75C156.487 119.917 157.237 119.583 159 120C158.667 121 159 121.333 160 121V119C161.733 119.557 162.4 119.223 162 118H164.75L165 117H168V116H171V115C172.763 115.417 173.513 115.083 173.25 114H176C175.667 113 176 112.667 177 113C176.667 114 177 114.333 178 114C177.443 112.267 177.777 111.6 179 112C178.667 113 179 113.333 180 113C179.333 111 180 110.333 182 111C181.667 112 182 112.333 183 112V110H186V109C187.733 109.557 188.4 109.223 188 108H191L191.25 107H195C194.667 108 195 108.333 196 108L196.25 107H200C199.443 108.733 199.777 109.4 201 109C200.6 107.777 201.267 107.443 203 108C202.443 109.733 202.777 110.4 204 110C203.6 108.777 204.267 108.443 206 109V110C207.733 109.443 208.4 109.777 208 111C207 110.667 206.667 111 207 112H209C208.667 111 209 110.667 210 111V112H213C212.443 113.733 212.777 114.4 214 114C213.667 113 214 112.667 215 113V114H217V115C218.733 114.443 219.4 114.777 219 116H221.75L222 117H225V118H227V119C228.733 118.443 229.4 118.777 229 120H232V121H233.75C233.487 122.083 234.237 122.417 236 122V120H237V119L239 118V116L241 115V113L243 112V110L245 109V107H246V106H247V105L249 104V102C250 102.333 250.333 102 250 101H252V100C251 100.333 250.667 100 251 99H252V98L254 97C253.667 98 254 98.3333 255 98C254.333 96 255 95.3333 257 96V97H260V96C258.267 96.5567 257.6 96.2233 258 95H261V96C262.733 95.4433 263.4 95.7767 263 97C262 96.6667 261.667 97 262 98H264C263.667 97 264 96.6667 265 97C264.6 98.2233 265.267 98.5567 267 98L268 100H270L271 102H273L274 104H276L277 106H279L280 108H282V109H283L284 111H285.75C285.487 112.083 286.237 112.417 288 112V113H289L290 115H291.75C291.487 116.083 292.237 116.417 294 116V115H295V114H296V113H297V112H298V111H299V110H300L301 108H303V107H304V106H305V105H306V104H307V103H308V102H309V101H310V100H311V99H312V98H313V97H314V96H315V95L317 94V95H320L319 93ZM325 95C324.667 96 325 96.3333 326 96C326.333 95 326 94.6667 325 95ZM252 99C251.667 100 252 100.333 253 100C253.333 99 253 98.6667 252 99ZM371 100C370.667 101 371 101.333 372 101C372.333 100 372 99.6667 371 100ZM368 102C367.667 103 368 103.333 369 103C369.333 102 369 101.667 368 102ZM191 108C190.667 109 191 109.333 192 109C192.333 108 192 107.667 191 108ZM205 110C204.667 111 205 111.333 206 111C206.333 110 206 109.667 205 110ZM320 115C320.333 116.333 319.667 116.667 318 116L317 118H316V119H315V120H313V122L311 123V124H310V125H309V126H308V127H307V128H306V129H305V132H304V135L305 135.5V150H306V154H305V158L307 158.5V170L308 170.5V177L309 177.5V186H310V193H309C308.667 194 309 194.333 310 194V196L311 196.5V205L312 205.5V215L313 215.5V221H314V226H313C312.667 227 313 227.5 314 227.5V231L315 231.5V239L316 239.5V249L317 249.5V257L318 257.5V268L319 268.5V275L320 275.5V284L321 284.5V292H322V296H321V299L322 299.5V304L323 304.5V310H329V306L331 307V297.5L330 297V292.5L331 292V264.5L332 264V248.5L333 248V223C334.333 222.667 334.667 223.333 334 225H335V218.5L334 218C333.667 217 334 216.667 335 217C335.333 216 335 215.667 334 216V208.5L335 208V184.5L336 184V168.5L337 168V142H338V145H339V134.5L338 134C337.667 133 338 132.667 339 133V130H337L336 128H335V127H334V126H333V125H332V124H331V123H330V122H329V121H328V120H327V119H326V118H325V117H324V116H323V115H320ZM377 116L376 118H374L373 120H372V121H370L369 123H368V124H366L365 126H363L362 128C361 128.333 360.667 128 361 127H360V129C359 128.667 358.667 129 359 130H357C357.333 131 357 131.5 356 131.5V145L355 145.5V159L354 159.5V181L353 181.5V202L352 202.5V214L351 214.5V242L350 242.5V255L349 255.5V284L348 284.5V298L347 298.5V312H352C351.667 311 352 310.667 353 311V308H354V302.5L355 302V299H356V293L358 294V291H357C356.667 289.333 357 288.667 358 289V283.5L359 283V280H360V275.5C361 275.5 361.333 275 361 274H362C362.333 273 362 272.667 361 273C360.667 271.333 361 270.667 362 271V266.5L363 266V262.5L364 262V256L366 257V253.5L365 253C364.667 252 365 251.667 366 252V247.5C367 247.5 367.333 246.167 367 243.5L368 243V238L370 237C370.333 236 370 235.667 369 236V233H370V228.5L371 228V223.5L372 223V220H373V214.5L374 214V210H375V204.5L376 204V201H377V195.5L378 195V191H379V185.5L380 185V181H381V175.5L382 175V171H383V165.5L384 165V162H385V155.5L386 155V152H387V147L389 146C389.333 145 389 144.667 388 145C387.667 143.333 388 142.667 389 143V138.5L390 138V132.5C389 132.5 388.667 131.667 389 130L387 129V127L385 126V124L383 123V122H382V120L380 119V118H379V116H377ZM260 117V119L258 120V121H257V123L255 124V126L253 127V128H252V130L250 131C250.667 132.667 250.333 133.333 249 133V139H250V142L251 142.5V146H252V149L253 149.5V153H254V156L255 156.5V160H256V163L257 163.5V167H258V170L259 170.5V174H260C259.667 175.667 260 176.5 261 176.5V181C262 180.667 262.333 181.333 262 183H263V187H264V190L265 190.5V194L266 194.5V198H267C267.333 199 267 199.333 266 199L267 201H268V204L269 204.5V208H270V211H271V214L272 214.5V218H273C272.667 219.667 273 220.5 274 220.5V225H275V228L276 228.5V232H277V235L278 235.5V239H279C279.333 240 279 240.333 278 240V242C279 242.333 279.333 242 279 241L280 241.5V246H281C280.667 247.667 281 248.5 282 248.5V253H283C282.667 254.667 283 255.5 284 255.5V260C285 259.667 285.333 260.333 285 262H286V266H287V269H288V272L289 272.5V276H290V279H291C291.333 280 291 280.333 290 280C289.667 281 290 281.333 291 281V283H292V286H293V290H294C294.333 291 294 291.333 293 291C292.667 292.333 293.333 292.667 295 292V297H296V300L297 300.5V304H298C298.333 305 298 305.5 297 305.5V308C298 308.333 298.333 308 298 307H299V311C300 310.667 300.333 311.333 300 313H304C303.667 312 304 311.667 305 312V306.5L304 306V297.5L303 297V292.5L304 292C304.333 291 304 290.667 303 291C302.667 290 303 289.667 304 290V287H303C303.333 286 303 285.667 302 286V279.5L301 279V269.5L300 269V259.5L299 259V254.5L300 254C300.333 253 300 252.667 299 253C298.667 252 299 251.667 300 252C300.333 251 300 250.667 299 251C298.667 250 299 249.667 300 250L299 248H298V243.5L297 243V231.5L296 231V224.5L295 224V212.5L294 212V206.5L293 206V192.5L292 192V184.5L291 184V180.5L292 180V175.5L291 175V172H290V167H289V154.5L288 154V143.5L287 143V139.5L288 139C288.333 137.333 288 136.667 287 137V134L285 133V132H283L282 130H280L279 128H277L276 126H274L273 124H272V123H271V122H269L268 120H266L265 118C263.333 118.333 262.667 118 263 117H260ZM485 124C484.667 125 485 125.333 486 125C486.333 124 486 123.667 485 124ZM476 126C475.667 127 476 127.333 477 127C477.333 126 477 125.667 476 126ZM95 145C94.6667 146.333 95.3333 146.667 97 146C97.3333 144.667 96.6667 144.333 95 145ZM191 147C190.667 148 191 148.333 192 148C192.333 147 192 146.667 191 147ZM506 151V152H502V154L500 155V158H499C499.333 159.667 499 160.5 498 160.5V163C496.667 162.667 496.333 163.333 497 165H496V167H495V169H494V172L492 173V176C491 175.667 490.667 176.333 491 178H490V181H488C487.667 182 488 182.333 489 182C489.333 183 489 183.333 488 183V185H487V187H486V190C484.667 189.667 484.333 190.333 485 192H484V194H483V197L481 198V201H480C480.333 202.667 480 203.5 479 203.5V206L477 207V210H476C476.333 211.667 476 212.5 475 212.5V215C473.667 214.667 473.333 215.333 474 217H472C471.667 218 472 218.333 473 218C473.333 219.667 473 220.5 472 220.5V222H471V225C469.667 224.667 469.333 225.333 470 227H469V230C467.667 229.667 467.333 230.333 468 232H467V234H466V236H465V239C463.667 238.667 463.333 239.333 464 241H463V243L461 244C460.667 245 461 245.333 462 245L461 247H460V250H459C459.333 251.667 459 252.5 458 252.5V255C456.667 254.667 456.333 255.333 457 257H456V260L454 261V264H453C453.333 265.667 453 266.5 452 266.5V269C450.667 268.667 450.333 269.333 451 271H449C448.333 272.667 448.667 273.333 450 273C450.333 274 450 274.333 449 274V276H448V278H447V280H446V283C444.667 282.667 444.333 283.333 445 285H444V287H443V290H441C440.667 291 441 291.333 442 291C442.333 292 442 292.333 441 292V294H440V296H439V299H437C436.667 300 437 300.333 438 300C438.333 301 438 301.5 437 301.5V304L435 305V308C434 307.667 433.667 308.333 434 310H433V313C431.667 312.667 431.333 313.333 432 315H431V317H430V319H429V322H428C428.333 323.667 428 324.5 427 324.5V327C425.667 326.667 425.333 327.333 426 329H425V332C423.667 331.667 423.333 332.333 424 334H423V336H422V338H421V340H420V343H418C417.333 344.667 417.667 345.333 419 345C419.333 346.667 419 347.5 418 347.5V349C419 349.333 419.333 349 419 348C420 347.667 420.333 348 420 349H422V350H424V351H426V352H429C428.667 353.333 429.333 353.667 431 353V354H433V355H435V356H438C437.667 357.333 438.333 357.667 440 357V358H442V359H444V360H447V361C448.667 360.667 449.5 361 449.5 362H452C451.667 363.333 452.333 363.667 454 363V364H456V365H458V366H460V367H462V368H465C464.667 369.333 465.333 369.667 467 369V370H469V371H471V372H477C476.667 371 477 370.667 478 371V370H479C478.667 368.333 479 367.667 480 368V366H481V364H482V361L484 360V357C485.333 357.333 485.667 356.667 485 355H486V352L488 351V348H489C488.667 346.333 489 345.667 490 346V343L492 342V339H494C494.333 338 494 337.667 493 338C492.667 337 493 336.667 494 337V334.5C495 334.5 495.333 333.667 495 332H496V329C497.333 329.333 497.667 328.667 497 327H498V325H499V323H500V320C501.333 320.333 501.667 319.667 501 318H502V316H503V313C504.333 313.333 504.667 312.667 504 311H505V309L507 308V304L509 303V300H510C509.667 298.333 510 297.667 511 298V295H513V291C514.333 291.333 514.667 290.667 514 289H515V286.5C516 286.5 516.333 285.667 516 284H517V281C518.333 281.333 518.667 280.667 518 279H519V277H520V275H521V272C522.333 272.333 522.667 271.667 522 270H523V268H524V266H525V264H526V261H527C526.667 259.333 527 258.667 528 259V256C529.333 256.333 529.667 255.667 529 254H530V252H531V250L533 249C533.333 248 533 247.667 532 248C531.667 247 532 246.667 533 247V245H534V242L536 241V240H537C537.333 239 537 238.667 536 239C535.667 238 536 237.667 537 238V236H538V233.5C539 233.5 539.333 232.667 539 231L541 232C541.667 230.333 541.333 229.667 540 230C539.667 229 540 228.667 541 229V227H542V224.5C543 224.5 543.333 223.667 543 222L545 223C545.667 221.333 545.333 220.667 544 221C543.667 219.333 544 218.667 545 219V217H546V215H547V212L549 211V208C550.333 208.333 550.667 207.667 550 206H551V203C552.333 203.333 552.667 202.667 552 201H553V199H554V197H555V194C556.333 194.333 556.667 193.667 556 192H557V190H558V188H559V185H560C559.667 183.333 560 182.667 561 183V179H562C562.333 178 562 177.667 561 178V176C560 176.333 559.667 176 560 175H558V174H555V173C553.333 173.333 552.667 173 553 172H550C550.333 170.667 549.667 170.333 548 171V170H545C545.333 168.667 544.667 168.333 543 169V168H541V167H539V166H537V165H535V164H532C532.333 162.667 531.667 162.333 530 163V162H528V161H526V160H524V159H522V158H519L520 156C518.333 155.333 517.667 155.667 518 157C517 157.333 516.667 157 517 156H514.5C514.5 155 513.667 154.667 512 155V154H510L511 152C509.333 151.333 508.667 151.667 509 153L507 152V151H506ZM514 154C513.667 155 514 155.333 515 155C515.333 154 515 153.667 514 154ZM116 156C115.667 157 116 157.333 117 157C117.333 156 117 155.667 116 156ZM532 162C531.667 163 532 163.333 533 163C533.333 162 533 161.667 532 162ZM487 182C486.667 183 487 183.333 488 183C488.333 182 488 181.667 487 182ZM214 210C213.667 211 214 211.333 215 211C215.333 210 215 209.667 214 210ZM447 228C446.667 229 447 229.333 448 229C448.333 228 448 227.667 447 228ZM78 247C77.6667 248 78 248.333 79 248C79.3333 247 79 246.667 78 247ZM529 256C528.667 257 529 257.333 530 257C530.333 256 530 255.667 529 256ZM82 257C81.6667 258 82 258.333 83 258C83.3333 257 83 256.667 82 257ZM542 274C541.667 275 542 275.333 543 275C543.333 274 543 273.667 542 274ZM409 276C408.667 277 409 277.333 410 277C410.333 276 410 275.667 409 276ZM384 302C383.667 303 384 303.333 385 303C385.333 302 385 301.667 384 302ZM385 303C384.667 304 385 304.333 386 304C386.333 303 386 302.667 385 303ZM250 305C249.667 306.333 250.333 306.667 252 306C252.333 304.667 251.667 304.333 250 305ZM388 307C387.667 308 388 308.333 389 308C389.333 307 389 306.667 388 307ZM397 308C396.667 309 397 309.333 398 309C398.333 308 398 307.667 397 308ZM393 314C392.667 315 393 315.333 394 315C394.333 314 394 313.667 393 314ZM322 328C321.667 329.333 322.333 329.667 324 329C324.333 327.667 323.667 327.333 322 328ZM325 328V329H328V328H325ZM329 328C328.667 329 329 329.333 330 329C330.333 328 330 327.667 329 328ZM315 329C314.667 330.333 315.333 330.667 317 330C317.333 328.667 316.667 328.333 315 329ZM497 329C496.667 330 497 330.333 498 330C498.333 329 498 328.667 497 329ZM510 347C509.667 348 510 348.333 511 348C511.333 347 511 346.667 510 347ZM189 360C188.667 361 189 361.333 190 361C190.333 360 190 359.667 189 360ZM223 366C222.667 367 223 367.333 224 367C224.333 366 224 365.667 223 366ZM413 367C412.667 368 413 368.333 414 368C414.333 367 414 366.667 413 367ZM167 368C166.667 369 167 369.333 168 369C168.333 368 168 367.667 167 368ZM163 370C162.667 371 163 371.333 164 371C164.333 370 164 369.667 163 370ZM466 370C465.667 371 466 371.333 467 371C467.333 370 467 369.667 466 370ZM423 372C422.667 373.333 423.333 373.667 425 373C425.333 371.667 424.667 371.333 423 372ZM495 381C494.667 382 495 382.333 496 382C496.333 381 496 380.667 495 381ZM454 386C453.667 387 454 387.333 455 387C455.333 386 455 385.667 454 386Z" fill="#A62508"/>
<path opacity="0.862745" d="M170 152H174.75L175 153H177C176.667 154 177 154.333 178 154V156H179C178.583 157.763 178.917 158.513 180 158.25V162L181 162.25V168H180L179 170H177.25C177.513 171.083 176.763 171.417 175 171V172H172V173C170.237 172.583 169.487 172.917 169.75 174H167C167.333 175 167 175.333 166 175V174H163V175C164.733 174.443 165.4 174.777 165 176H162V177H160.25C160.513 178.083 159.763 178.417 158 178C158.333 177 158 176.667 157 177V178L155 179C155.4 177.777 154.733 177.443 153 178L154 180H151V181H148.25C148.467 181.917 148.05 182.25 147 182C147.4 180.777 146.733 180.443 145 181L146 183C144.95 183.25 144.533 182.917 144.75 182H142V183C143.733 182.443 144.4 182.777 144 184H141.25L141 183H138C138.333 184 138 184.333 137 184L138 182L136 181C136.333 182 136 182.333 135 182C135.333 181 135 180.667 134 181V177.25C132.917 177.513 132.583 176.763 133 175H132V173C133.223 173.4 133.557 172.733 133 171C132 171.333 131.667 171 132 170C133 170.333 133.333 170 133 169C132 169.333 131.667 169 132 168H133L134 166H135.75C135.487 164.917 136.237 164.583 138 165V164H141V163H144V162H146.75C146.533 161.083 146.95 160.75 148 161C147.667 162 148 162.333 149 162V160H152V159H153.75C153.487 157.917 154.237 157.583 156 158C155.6 159.223 156.267 159.557 158 159L157 157C158.763 157.417 159.513 157.083 159.25 156H162L162.25 155H165C164.667 154 165 153.667 166 154C165.6 155.223 166.267 155.557 168 155L167 153H170V152ZM170 153C169.667 154 170 154.333 171 154C171.333 153 171 152.667 170 153ZM174 153C173.667 154 174 154.333 175 154C175.333 153 175 152.667 174 153ZM159 157C158.667 158 159 158.333 160 158C160.333 157 160 156.667 159 157ZM152 160C151.667 161 152 161.333 153 161C153.333 160 153 159.667 152 160ZM138 165C137.667 166 138 166.333 139 166C139.333 165 139 164.667 138 165ZM161 175C160.667 176 161 176.333 162 176C162.333 175 162 174.667 161 175ZM150 179C149.667 180 150 180.333 151 180C151.333 179 151 178.667 150 179ZM147 180C146.667 181 147 181.333 148 181C148.333 180 148 179.667 147 180Z" fill="#A62508"/>
<path opacity="0.862745" d="M183 181H184.75C184.487 182.083 185.237 182.417 187 182C186.667 183 187 183.333 188 183V185C189 184.667 189.333 185 189 186C187.777 185.6 187.443 186.267 188 188L190 187L189 189L191 190C190.443 191.733 190.777 192.4 192 192V197H191V198H190L189 200H187V201C185.267 200.443 184.6 200.777 185 202H182V203C180.237 202.583 179.487 202.917 179.75 204H177C177.333 205 177 205.333 176 205C176.4 203.777 175.733 203.443 174 204L175 206H173C173.333 205 173 204.667 172 205C172.667 207 172 207.667 170 207C170.333 206 170 205.667 169 206V208H166.25C166.467 208.917 166.05 209.25 165 209C165.333 208 165 207.667 164 208C164.557 209.733 164.223 210.4 163 210C163.333 209 163 208.667 162 209L161 211C159.237 210.583 158.487 210.917 158.75 212H156C156.333 213 156 213.333 155 213L154.75 212H151V213H154V214H148.25L148 213C149.733 213.557 150.4 213.223 150 212H146V211L144 210V207H143V204L142 203.75V198H143V197L145 196C144.6 197.223 145.267 197.557 147 197L146 195C147.763 195.417 148.513 195.083 148.25 194H151C150.667 193 151 192.667 152 193C151.6 194.223 152.267 194.557 154 194L153 192C154.05 191.75 154.467 192.083 154.25 193H157L156 191C157 190.667 157.333 191 157 192H159L158 190H159.75C159.487 191.083 160.237 191.417 162 191L161 189C162.763 189.417 163.513 189.083 163.25 188H166V187C167.733 187.557 168.4 187.223 168 186H171V185H174V184H177V183H178.75C178.487 181.917 179.237 181.583 181 182L181.25 183H185V182C183.267 182.557 182.6 182.223 183 181ZM179 183C178.667 184 179 184.333 180 184C180.333 183 180 182.667 179 183ZM185 183C184.667 184.333 185.333 184.667 187 184C187.333 182.667 186.667 182.333 185 183ZM151 194C150.667 195 151 195.333 152 195C152.333 194 152 193.667 151 194ZM143 199C142.667 200 143 200.333 144 200C144.333 199 144 198.667 143 199ZM155 211C154.667 212 155 212.333 156 212C156.333 211 156 210.667 155 211Z" fill="#A62508"/>
<path opacity="0.862745" d="M115 183H118.75L119 184C118 183.667 117.667 184 118 185H119.75C119.487 183.917 120.237 183.583 122 184C121.667 185 122 185.333 123 185V187H124C123.667 186 124 185.667 125 186V188C126.223 187.6 126.557 188.267 126 190H127V193C126 192.667 125.667 193 126 194H127V197H126V199H125L124 201H121V202C122 201.667 122.333 202 122 203C120.95 202.75 120.533 203.083 120.75 204H118V203H115V204H112L111 202H109V200L107 199V196L106 195.75V191H107L108 189C107 189.333 106.667 189 107 188H108V187H109V186L111 185C110.6 186.223 111.267 186.557 113 186L112 184C113.05 183.75 113.467 184.083 113.25 185H116L115 183ZM112 202C111.667 203.333 112.333 203.667 114 203C114.333 201.667 113.667 201.333 112 202ZM118 202V203H121V202H118Z" fill="#A62508"/>
<path opacity="0.862745" d="M507 204H509.75C509.487 205.083 510.237 205.417 512 205C511.6 203.777 512.267 203.443 514 204V205C512.267 204.443 511.6 204.777 512 206H514.75C514.533 205.083 514.95 204.75 516 205L517 207C516 206.667 515.667 207 516 208H518C517.667 207 518 206.667 519 207V209H520C519.583 210.763 519.917 211.513 521 211.25V219L519 220V222C518 221.667 517.667 222 518 223H516V224H513L512.75 225H507V224C508.733 224.557 509.4 224.223 509 223H506.25C506.467 223.917 506.05 224.25 505 224V223H504V222H503V221L501 220V218H500V211H501V209C502 209.333 502.333 209 502 208H505L506 206C505 206.333 504.667 206 505 205C506.05 204.75 506.467 205.083 506.25 206H509V205C507.267 205.557 506.6 205.223 507 204ZM515 206C514.667 207 515 207.333 516 207C516.333 206 516 205.667 515 206ZM519 211C518.667 212 519 212.333 520 212C520.333 211 520 210.667 519 211Z" fill="#A62508"/>
<path opacity="0.862745" d="M503 206C504 205.667 504.333 206 504 207C503 207.333 502.667 207 503 206Z" fill="#A62508"/>
<path opacity="0.862745" d="M193 211H195V212C196.733 211.443 197.4 211.777 197 213C196 212.667 195.667 213 196 214H199V216H200C199.443 217.733 199.777 218.4 201 218V220.75L202 221V223.75C203.083 223.487 203.417 224.237 203 226H202C202.557 227.733 202.223 228.4 201 228C201.333 227 201 226.667 200 227V229C199 228.667 198.667 229 199 230H196V231H194C194.333 232 194 232.333 193 232C193.333 231 193 230.667 192 231L191 233H189V234C187.267 233.443 186.6 233.777 187 235H184V236H182.25C182.513 237.083 181.763 237.417 180 237C180.4 235.777 179.733 235.443 178 236L179 238C177.95 238.25 177.533 237.917 177.75 237H175V238C176.733 237.443 177.4 237.777 177 239H175.25C175.513 237.917 174.763 237.583 173 238L174 240C172.95 240.25 172.533 239.917 172.75 239H170L171 241C169.237 240.583 168.487 240.917 168.75 242H165.25C165.467 242.917 165.05 243.25 164 243L163.75 242H158C158.333 243 158 243.333 157 243L156 241C157 241.333 157.333 241 157 240C155.267 240.557 154.6 240.223 155 239C156.223 239.4 156.557 238.733 156 237H154C154.557 235.267 154.223 234.6 153 235V229H154L155 227H157V226C156 226.333 155.667 226 156 225L158 226V224H161V223C162.733 223.557 163.4 223.223 163 222H166V221C167.733 221.557 168.4 221.223 168 220H171V219C172.733 219.557 173.4 219.223 173 218H176V217C177.733 217.557 178.4 217.223 178 216H181V215H184V214H187V213H188.75C188.487 211.917 189.237 211.583 191 212C190.667 213 191 213.333 192 213L193 211ZM193 212C192.667 213.333 193.333 213.667 195 213C195.333 211.667 194.667 211.333 193 212ZM189 213C188.667 214.333 189.333 214.667 191 214C191.333 212.667 190.667 212.333 189 213ZM163 223C162.667 224 163 224.333 164 224C164.333 223 164 222.667 163 223ZM161 224C160.667 225 161 225.333 162 225C162.333 224 162 223.667 161 224ZM188 232C187.667 233 188 233.333 189 233C189.333 232 189 231.667 188 232ZM167 240C166.667 241.333 167.333 241.667 169 241C169.333 239.667 168.667 239.333 167 240Z" fill="#A62508"/>
<path opacity="0.862745" d="M126 217H130V218H133L134 220H136V222H137C136.75 223.05 137.083 223.467 138 223.25V232C136.777 231.6 136.443 232.267 137 234H136V235H135V236L133 237C133.4 235.777 132.733 235.443 131 236L132 238C130.237 238.417 129.487 238.083 129.75 237H126V238H123V237L121 236V234H119V232H118C118.557 230.267 118.223 229.6 117 230V225H118V223.25C119.083 223.513 119.417 222.763 119 221H120V220L122 219C121.6 220.223 122.267 220.557 124 220L123 218H126V217Z" fill="#A62508"/>
<path opacity="0.862745" d="M491 240H493.75C493.487 241.083 494.237 241.417 496 241C495.6 239.777 496.267 239.443 498 240V241H499.75C499.487 242.083 500.237 242.417 502 242V243L504 244V246H505V254C503.777 253.6 503.443 254.267 504 256L502 257V259H500C500.333 260 500 260.333 499 260C499.333 259 499 258.667 498 259V261H492V260H490.25C490.513 258.917 489.763 258.583 488 259V258L486 257V254.25C484.917 254.513 484.583 253.763 485 252H484V249H485L486 247C485 247.333 484.667 247 485 246C486.223 246.4 486.557 245.733 486 244H487V243H488V242L490 241V242H493V241C491.267 241.557 490.6 241.223 491 240ZM489 242C488.667 243 489 243.333 490 243C490.333 242 490 241.667 489 242ZM488 243C487.667 244 488 244.333 489 244C489.333 243 489 242.667 488 243Z" fill="#A62508"/>
<path opacity="0.862745" d="M204 241H208L209 243C208 242.667 207.667 243 208 244C209 243.667 209.333 244 209 245H211V248H212C211.583 249.763 211.917 250.513 213 250.25V255C212 254.667 211.667 255 212 256C213 255.667 213.333 256 213 257L211 256L210 258C211 257.667 211.333 258 211 259C210 258.667 209.667 259 210 260H208C208.4 258.777 207.733 258.443 206 259L207 261C205.95 261.25 205.533 260.917 205.75 260H203V261C204.733 260.443 205.4 260.777 205 262H203C203.333 261 203 260.667 202 261C202.557 262.733 202.223 263.4 201 263V262H198V263C199.733 262.443 200.4 262.777 200 264H197V265C195.267 264.443 194.6 264.777 195 266H192V267H189.25C189.467 267.917 189.05 268.25 188 268C188.333 267 188 266.667 187 267L186 269H184V270C182.237 269.583 181.487 269.917 181.75 271H179C179.333 272 179 272.333 178 272V271H175V272C176.733 271.443 177.4 271.777 177 273C175.237 273.417 174.487 273.083 174.75 272H169C169.333 273 169 273.333 168 273V272L166 271V269H165V265H164C164.417 263.237 164.083 262.487 163 262.75V258H164V257L166 256C165.6 257.223 166.267 257.557 168 257L167 255C168 254.667 168.333 255 168 256H170L169 254H172V253H173.75C173.487 251.917 174.237 251.583 176 252C175.6 253.223 176.267 253.557 178 253L177 251C178 250.667 178.333 251 178 252H180L179 250L181 251V249H184V248C185.733 248.557 186.4 248.223 186 247H189V246H192V245H193.75C193.487 243.917 194.237 243.583 196 244C195.667 245 196 245.333 197 245L198 243H199.75C199.487 241.917 200.237 241.583 202 242V243H205L204 241ZM206 242C205.667 243.333 206.333 243.667 208 243C208.333 241.667 207.667 241.333 206 242ZM200 243C199.667 244.333 200.333 244.667 202 244C202.333 242.667 201.667 242.333 200 243ZM194 245C193.667 246.333 194.333 246.667 196 246C196.333 244.667 195.667 244.333 194 245ZM165 257C164.667 258 165 258.333 166 258C166.333 257 166 256.667 165 257ZM196 263C195.667 264 196 264.333 197 264C197.333 263 197 262.667 196 263ZM194 264C193.667 265 194 265.333 195 265C195.333 264 195 263.667 194 264ZM191 265C190.667 266 191 266.333 192 266C192.333 265 192 264.667 191 265ZM167 270C166.667 271 167 271.333 168 271C168.333 270 168 269.667 167 270ZM178 270C177.667 271 178 271.333 179 271C179.333 270 179 269.667 178 270ZM168 271C167.667 272 168 272.333 169 272C169.333 271 169 270.667 168 271Z" fill="#A62508"/>
<path opacity="0.862745" d="M159 243H162V244H159V243Z" fill="#A62508"/>
<path opacity="0.862745" d="M136 251H138.75C138.533 251.917 138.95 252.25 140 252L140.25 251H144L143 253H145C144.667 252 145 251.667 146 252V253H147V254H148V255H149C148.75 256.05 149.083 256.467 150 256.25V266H149V268H148L147 270H145V271C143.267 270.443 142.6 270.777 143 272H137V271H135.25C135.513 269.917 134.763 269.583 133 270C133.333 269 133 268.667 132 269V267L130 266V257L132 258V256C133 256.333 133.333 256 133 255C132 255.333 131.667 255 132 254H133L134 252H136V251ZM136 252C135.667 253.333 136.333 253.667 138 253C138.333 251.667 137.667 251.333 136 252ZM134 253C133.667 254.333 134.333 254.667 136 254C136.333 252.667 135.667 252.333 134 253ZM145 253C144.667 254 145 254.333 146 254C146.333 253 146 252.667 145 253ZM133 254C132.667 255 133 255.333 134 255C134.333 254 134 253.667 133 254ZM135 269C134.667 270 135 270.333 136 270C136.333 269 136 268.667 135 269ZM144 269C143.667 270 144 270.333 145 270C145.333 269 145 268.667 144 269ZM137 270C136.667 271.333 137.333 271.667 139 271C139.333 269.667 138.667 269.333 137 270ZM141 270C140.667 271.333 141.333 271.667 143 271C143.333 269.667 142.667 269.333 141 270Z" fill="#A62508"/>
<path opacity="0.862745" d="M213 271L215 272C214.667 271 215 270.667 216 271C215.667 272 216 272.333 217 272C216.6 270.777 217.267 270.443 219 271V272H220L221 274C220 273.667 219.667 274 220 275L222 276V278H223V279.75C224.083 279.487 224.417 280.237 224 282H223V284.75C222.083 284.533 221.75 284.95 222 286C223.733 285.443 224.4 285.777 224 287L222 288C222.333 287 222 286.667 221 287V289C219.237 288.583 218.487 288.917 218.75 290H216C216.333 291 216 291.333 215 291C215.4 289.777 214.733 289.443 213 290L214 292C212.95 292.25 212.533 291.917 212.75 291H210L211 293H209.25C209.513 294.083 208.763 294.417 207 294C207.333 293 207 292.667 206 293C206.557 294.733 206.223 295.4 205 295V294H202V295C203.733 294.443 204.4 294.777 204 296H201.25C201.467 296.917 201.05 297.25 200 297C200.4 295.777 199.733 295.443 198 296L199 298L197 297V298L195 299C195.333 298 195 297.667 194 298V300H191.25C191.467 300.917 191.05 301.25 190 301C190.333 300 190 299.667 189 300C189.667 302 189 302.667 187 302V301H184V302C185.733 301.443 186.4 301.777 186 303H183.25C183.513 301.917 182.763 301.583 181 302C181.333 303 181 303.333 180 303L181 301H179.25C179.513 299.917 178.763 299.583 177 300C177.417 298.237 177.083 297.487 176 297.75V294.25C175.083 294.467 174.75 294.05 175 293L176 292.75V287C175 287.333 174.667 287 175 286C176 286.333 176.333 286 176 285H178C177.667 284 178 283.667 179 284V285H182V284C180.267 284.557 179.6 284.223 180 283H181.75C181.487 284.083 182.237 284.417 184 284L183 282H184.75C184.487 280.917 185.237 280.583 187 281C186.667 282 187 282.333 188 282V280H191V279C192.733 279.557 193.4 279.223 193 278H195.75C195.487 276.917 196.237 276.583 198 277C197.6 278.223 198.267 278.557 200 278L199 276C200.763 276.417 201.513 276.083 201.25 275H204L204.25 274H207L207.25 273H210C209.667 272 210 271.667 211 272C210.6 273.223 211.267 273.557 213 273V271ZM218 272C217.667 273 218 273.333 219 273C219.333 272 219 271.667 218 272ZM219 273C218.667 274 219 274.333 220 274C220.333 273 220 272.667 219 273ZM204 275C203.667 276 204 276.333 205 276C205.333 275 205 274.667 204 275ZM201 276C200.667 277.333 201.333 277.667 203 277C203.333 275.667 202.667 275.333 201 276ZM178 285C177.667 286 178 286.333 179 286C179.333 285 179 284.667 178 285ZM176 286C175.667 287 176 287.333 177 287C177.333 286 177 285.667 176 286ZM215 289C214.667 290 215 290.333 216 290C216.333 289 216 288.667 215 289ZM208 292C207.667 293 208 293.333 209 293C209.333 292 209 291.667 208 292ZM200 295C199.667 296 200 296.333 201 296C201.333 295 201 294.667 200 295ZM195 297C194.667 298 195 298.333 196 298C196.333 297 196 296.667 195 297Z" fill="#A62508"/>
<path opacity="0.862745" d="M170 273H173.75L174 274H170.25L170 273Z" fill="#A62508"/>
<path opacity="0.862745" d="M476 275H477.75C477.487 276.083 478.237 276.417 480 276L480.25 275H484V276H486V277H487V278H488V279L490 280V289H489V291H488V292H487V293H486L485 295H483C483.333 294 483 293.667 482 294L481.75 295H475V294H474L473 292H471V290C470 290.333 469.667 290 470 289C471.223 289.4 471.557 288.733 471 287L469 288V282.25C470.083 282.513 470.417 281.763 470 280H471V279H472V278H473L474 276H476V275ZM488 280C487.333 281.667 487.667 282.333 489 282C489.667 280.333 489.333 279.667 488 280ZM476 293C475.667 294 476 294.333 477 294C477.333 293 477 292.667 476 293Z" fill="#A62508"/>
<path opacity="0.862745" d="M149 285H151.75C151.487 286.083 152.237 286.417 154 286C153.6 284.777 154.267 284.443 156 285L155 287H157C156.667 286 157 285.667 158 286L159 288C158 287.667 157.667 288 158 289H161V290.75C162.083 290.487 162.417 291.237 162 293H161V297.75C160.083 297.533 159.75 297.95 160 299C161.733 298.443 162.4 298.777 162 300C160.777 299.6 160.443 300.267 161 302L159 303C159.4 301.777 158.733 301.443 157 302V303C155.237 302.583 154.487 302.917 154.75 304H149C149.4 302.777 148.733 302.443 147 303L148 305H147V304H146V303H145V302H144L143 300C144 300.333 144.333 300 144 299L142 298.75V291C143.223 291.4 143.557 290.733 143 289H144V288L146 287C145.6 288.223 146.267 288.557 148 288L147 286C148.05 285.75 148.467 286.083 148.25 287H151V286C149.267 286.557 148.6 286.223 149 285ZM144 300C143.667 301 144 301.333 145 301C145.333 300 145 299.667 144 300Z" fill="#A62508"/>
<path opacity="0.862745" d="M174 288C175 287.667 175.333 288 175 289C174 289.333 173.667 289 174 288Z" fill="#A62508"/>
<path opacity="0.862745" d="M174 290C175.223 289.6 175.557 290.267 175 292C173.777 292.4 173.443 291.733 174 290Z" fill="#A62508"/>
<path opacity="0.862745" d="M162 294H163V297H162V294Z" fill="#A62508"/>
<path opacity="0.862745" d="M223 300H229V301H230V302L232 303V305.75C233.083 305.487 233.417 306.237 233 308H234V311.75C235.083 311.487 235.417 312.237 235 314H234V316H233L232 318H230V319C228.267 318.443 227.6 318.777 228 320H225V321C223.237 320.583 222.487 320.917 222.75 322H220C220.333 323 220 323.333 219 323C219.333 322 219 321.667 218 322V324H215V325C213.267 324.443 212.6 324.777 213 326H210V327C208.267 326.443 207.6 326.777 208 328H205V329C203.267 328.443 202.6 328.777 203 330H200.25L200 331H197.25C197.513 332.083 196.763 332.417 195 332V331H192C192.4 332.223 191.733 332.557 190 332C190.333 331 190 330.667 189 331V329H188V327H187V325H186V323C187.223 323.4 187.557 322.733 187 321H185V317H186C185.443 318.733 185.777 319.4 187 319V317C188 317.333 188.333 317 188 316C186.267 316.557 185.6 316.223 186 315C187.05 315.25 187.467 314.917 187.25 314H190V313C191.733 313.557 192.4 313.223 192 312H195V311C196.733 311.557 197.4 311.223 197 310H199.75L200 309H203V308C204.733 308.557 205.4 308.223 205 307H208V306H210V305C211.733 305.557 212.4 305.223 212 304H214C213.6 305.223 214.267 305.557 216 305L215 303H217C216.667 304 217 304.333 218 304V302C219.763 302.417 220.513 302.083 220.25 301H223V300ZM212 305C211.667 306.333 212.333 306.667 214 306C214.333 304.667 213.667 304.333 212 305ZM188 315C187.667 316 188 316.333 189 316C189.333 315 189 314.667 188 315ZM190 330C189.667 331 190 331.333 191 331C191.333 330 191 329.667 190 330Z" fill="#A62508"/>
<path opacity="0.862745" d="M156 304C157 303.667 157.333 304 157 305C156 305.333 155.667 305 156 304Z" fill="#A62508"/>
<path opacity="0.862745" d="M150 305H153.75L154 306H150.25L150 305Z" fill="#A62508"/>
<path opacity="0.862745" d="M460 310H468.75C468.487 311.083 469.237 311.417 471 311V312H472V313L474 314V316H475V323H474V324.75C472.917 324.487 472.583 325.237 473 327H472L471 329H469V330H466.25C466.513 331.083 465.763 331.417 464 331L465 329H463C463.333 330 463 330.333 462 330C462.333 329 462 328.667 461 329C461.333 330 461 330.333 460 330L461 328H459C459.333 329 459 329.333 458 329V328L456 327V325.25C454.917 325.513 454.583 324.763 455 323C456.223 323.4 456.557 322.733 456 321L454 322V318.25L455 318V315C456.223 315.4 456.557 314.733 456 313H457L458 311H460V310ZM460 311C459.667 312 460 312.333 461 312C461.333 311 461 310.667 460 311ZM457 313C456.667 314 457 314.333 458 314C458.333 313 458 312.667 457 313ZM455 319C454.667 320 455 320.333 456 320C456.333 319 456 318.667 455 319Z" fill="#A62508"/>
<path opacity="0.862745" d="M161 318H167.75C167.487 319.083 168.237 319.417 170 319V320H171V321L173 322V324C174 323.667 174.333 324 174 325C173 324.667 172.667 325 173 326H175V331C173.267 330.443 172.6 330.777 173 332C174 331.667 174.333 332 174 333C172.777 332.6 172.443 333.267 173 335H172V336L170 337L171 335H169V336C167.237 335.583 166.487 335.917 166.75 337H161V336H158C158.333 337 158 337.333 157 337L156 335C157.223 335.4 157.557 334.733 157 333C156 333.333 155.667 333 156 332H154V325C156 325.667 156.667 325 156 323C155 323.333 154.667 323 155 322H156V321L158 320C157.6 321.223 158.267 321.557 160 321L159 319L161 320V318ZM172 332C171.667 333 172 333.333 173 333C173.333 332 173 331.667 172 332Z" fill="#A62508"/>
<path opacity="0.862745" d="M255 322C256.733 321.443 257.4 321.777 257 323H255C255.333 324 255 324.333 254 324V326L256 325C256.25 326.05 255.917 326.467 255 326.25V329C256 328.667 256.333 329 256 330C254.777 329.6 254.443 330.267 255 332L256 332.25V337C255 336.667 254.667 337 255 338L256 338.25V342.75L257 343.25V348.75C258.083 348.487 258.417 349.237 258 351H259V354C258 353.667 257.667 354 258 355H260C259.667 356 260 356.333 261 356V359L263 360V362L265 363V365H266V366H267V367H268V368H269V369H270V370H271V371H272V372H273L274 374H276V375C277.05 374.75 277.467 375.083 277.25 376H281L282 374H284V373H286V372H288V371H290C289.667 370 290 369.667 291 370V371H294L293 369H294.75C294.487 367.917 295.237 367.583 297 368V369H300V368C298.267 368.557 297.6 368.223 298 367C299.763 366.583 300.513 366.917 300.25 368H304V367C302.267 367.557 301.6 367.223 302 366H305L305.25 367H309V366C307.267 366.557 306.6 366.223 307 365H310.75C310.533 365.917 310.95 366.25 312 366C311.667 365 312 364.667 313 365C312.667 366 313 366.333 314 366L314.25 364H323V365H325.75C325.533 365.917 325.95 366.25 327 366L327.25 365H331V366H335.75L336.25 367H340V368C339 367.667 338.667 368 339 369H340.75C340.487 367.917 341.237 367.583 343 368V369H344V370L346 371C345.667 370 346 369.667 347 370V371H349V372H351V373H352.75C352.487 374.083 353.237 374.417 355 374L356 376H360L361 374H363V373H364V372H365V371H366V370H367V369H368V368H369V367H370L371 365C372.733 365.557 373.4 365.223 373 364C372 364.333 371.667 364 372 363C373.223 363.4 373.557 362.733 373 361L375 360V358L377 357V354H378C377.583 352.237 377.917 351.487 379 351.75V347.25L380 346.75V342.25L381 342C380.667 343 381 343.333 382 343V337.25C380.917 337.513 380.583 336.763 381 335L382 334.75V328L380 329C379.667 328 380 327.667 381 328V326H382V327H383L384 329H386C385.667 330 386 330.333 387 330V332C388 331.667 388.333 332 388 333C387 332.667 386.667 333 387 334H389V336L391 337V339C389.777 338.6 389.443 339.267 390 341L392 340L391 342H393V346H394C393.583 347.763 393.917 348.513 395 348.25V353.75L396 354.25V359.75L397 360.25V366L396 366.25V371.75L395 372.25V377H394C394.417 378.763 394.083 379.513 393 379.25V383C392 382.667 391.667 383 392 384H390V385C391.223 384.6 391.557 385.267 391 387L389 388V390L387 391V393L385 394V396H384V397H383V398L381 399V403H382V406L383 406.25V411C381.777 410.6 381.443 411.267 382 413H384V414H385V415H386V416L388 417V419H391V420H392V421H393V422H394V423H395V424H396L397 426H399V427H400V428H401V429H402V430L404 431V433H406V434H407V435H408V436H409L410 438H412V439H413V440H414V441H415V442H416V443H417V444H418L419 446H421V447H422V448H423V449H424V450L426 451V453C427 452.667 427.333 453 427 454C425.95 453.75 425.533 454.083 425.75 455H379C379.333 454 379 453.667 378 454L377.75 455H367C367.4 453.777 366.733 453.443 365 454C365.333 455 365 455.333 364 455L363.75 454H354V455H351L350.75 454H340L339.75 455H287L286.75 454H280V455H277L276.75 454H273C273.333 455 273 455.333 272 455L271.75 454H268L267.75 455H211C211.333 454 211 453.667 210 454V452H211V451H212V450H213V449H214V448H215V447L217 446C216.667 447 217 447.333 218 447V445H219V444H220V443H221V442H222V441H223V440H224V439H225V438H226V437H227V436H228L229 434H232V432H233V431H234V430H235V429H236V428H237L238 426H240V425H241V424H242V423H243V422H244V421H245V420H246L247 418H249V417H250L251 415H253V410.25L254 409.75V406.25L255 405.75V401.25C256.083 401.513 256.417 400.763 256 399H255V398H254V397H253L252 395C253 395.333 253.333 395 253 394H251V393L249 392V390L247 389V387L245 386V384C246 384.333 246.333 384 246 383H244C244.417 381.237 244.083 380.487 243 380.75V378H242C242.417 376.237 242.083 375.487 241 375.75V368.25L240 367.75V358L241 357.75V350.25L242 350V347H243V345C244 345.333 244.333 345 244 344C243 344.333 242.667 344 243 343C244.733 343.557 245.4 343.223 245 342C244 342.333 243.667 342 244 341H245V338L247 337V334C248 334.333 248.333 334 248 333H250V332C249 332.333 248.667 332 249 331C250.733 331.557 251.4 331.223 251 330C250 330.333 249.667 330 250 329L252 330C251.667 329 252 328.667 253 329V327C254 327.333 254.333 327 254 326C252.777 326.4 252.443 325.733 253 324H254L255 322ZM386 332C385.667 333 386 333.333 387 333C387.333 332 387 331.667 386 332ZM248 334C247.667 335 248 335.333 249 335C249.333 334 249 333.667 248 334ZM316 365C315.667 366 316 366.333 317 366C317.333 365 317 364.667 316 365ZM321 365C320.667 366.333 321.333 366.667 323 366C323.333 364.667 322.667 364.333 321 365ZM335 367C334.667 368 335 368.333 336 368C336.333 367 336 366.667 335 367ZM295 369C294.667 370 295 370.333 296 370C296.333 369 296 368.667 295 369ZM342 369C341.667 370 342 370.333 343 370C343.333 369 343 368.667 342 369ZM368 369C367.667 370 368 370.333 369 370C369.333 369 369 368.667 368 369ZM383 395C382.667 396 383 396.333 384 396C384.333 395 384 394.667 383 395ZM275 413C274.667 414.667 275 415.5 276 415.5V422L277 422.5V428H278V431H302V432H303V429C302 428.667 301.667 429 302 430L300 429V428H298L297 426C295.333 426.333 294.667 426 295 425H293L292 423H291V422C289.333 422.333 288.667 422 289 421H287V420H285V418C283.333 418.333 282.667 418 283 417H281L280 415H279V414C277.333 414.333 276.667 414 277 413H275ZM360 413L359 415H357L356 417H354L353 419H351L350 421H348L347 423C345.333 422.667 344.667 423 345 424H343L342 426H340L339 428H337L336 430H335V432C336 432.333 336.5 432 336.5 431H359V427.5L360 427V420.5L361 420V415H362C362.667 413 362 412.333 360 413ZM383 414C382.667 415 383 415.333 384 415C384.333 414 384 413.667 383 414ZM211 453C210.667 454 211 454.333 212 454C212.333 453 212 452.667 211 453ZM424 453C423.667 454.333 424.333 454.667 426 454C426.333 452.667 425.667 452.333 424 453Z" fill="#A62508"/>
<path opacity="0.862745" d="M379 323H382L383 325C382 325.333 381.667 325 382 324H380C380.333 325 380 325.333 379 325V323Z" fill="#A62508"/>
<path opacity="0.862745" d="M159 337C160 336.667 160.333 337 160 338C159 338.333 158.667 338 159 337Z" fill="#A62508"/>
<path opacity="0.862745" d="M168 337C169 336.667 169.333 337 169 338C168 338.333 167.667 338 168 337Z" fill="#A62508"/>
<path opacity="0.862745" d="M163 338H166V339H163V338Z" fill="#A62508"/>
</g>
<defs>
<clipPath id="clip0_5_183">
<rect width="637" height="578" fill="white"/>
</clipPath>
</defs>
</svg>
